<svg width="174" height="174" viewBox="0 0 174 174" fill="none" xmlns="http://www.w3.org/2000/svg">
<g opacity="0.5">
<path opacity="0.5" d="M87 174C135.049 174 174 135.049 174 87C174 38.9512 135.049 0 87 0C38.9512 0 0 38.9512 0 87C0 135.049 38.9512 174 87 174Z" fill="url(#paint0_linear)"/>
</g>
<path d="M87.1651 171.605C134.198 171.605 172.326 133.477 172.326 86.4445C172.326 39.4115 134.198 1.28372 87.1651 1.28372C40.1322 1.28372 2.00439 39.4115 2.00439 86.4445C2.00439 133.477 40.1322 171.605 87.1651 171.605Z" fill="#F5F5F5"/>
<path d="M87.2403 171.943C103.872 171.965 120.142 167.093 134.025 157.935C130.887 140.789 118.943 139.805 118.943 139.805H53.1204C53.1204 139.805 41.8598 140.728 38.3314 156.508C52.6496 166.58 69.7347 171.972 87.2403 171.943V171.943Z" fill="#5DBBC1"/>
<path d="M86.3393 125.759C109.043 125.759 127.448 107.354 127.448 84.6503C127.448 61.9464 109.043 43.5413 86.3393 43.5413C63.6355 43.5413 45.2303 61.9464 45.2303 84.6503C45.2303 107.354 63.6355 125.759 86.3393 125.759Z" fill="#F55F44"/>
<path opacity="0.1" d="M73.0742 118.89H99.4167V139.963C99.4167 141.692 99.0761 143.404 98.4144 145.002C97.7527 146.599 96.7827 148.051 95.56 149.274C94.3373 150.496 92.8857 151.466 91.2882 152.128C89.6906 152.79 87.9784 153.13 86.2492 153.13V153.13C84.52 153.13 82.8078 152.79 81.2102 152.128C79.6127 151.466 78.1611 150.496 76.9384 149.274C75.7157 148.051 74.7458 146.599 74.084 145.002C73.4223 143.404 73.0817 141.692 73.0817 139.963V118.89H73.0742V118.89Z" fill="black"/>
<path d="M75.5892 117.914H96.9019C97.5689 117.914 98.2085 118.179 98.6802 118.651C99.1518 119.123 99.4168 119.762 99.4168 120.429V138.987C99.4168 142.479 98.0295 145.828 95.5601 148.298C93.0907 150.767 89.7415 152.154 86.2493 152.154C82.757 152.154 79.4078 150.767 76.9385 148.298C74.4691 145.828 73.0818 142.479 73.0818 138.987V120.429C73.0818 119.762 73.3468 119.123 73.8184 118.651C74.29 118.179 74.9297 117.914 75.5967 117.914H75.5892V117.914Z" fill="#FDA57D"/>
<path opacity="0.1" d="M73.1268 128.837C81.6164 132.01 90.9618 132.037 99.4693 128.912V125.677H73.1268V128.837Z" fill="black"/>
<path d="M86.3394 130.601C107.19 130.601 124.093 113.699 124.093 92.8481C124.093 71.9975 107.19 55.0947 86.3394 55.0947C65.4888 55.0947 48.5861 71.9975 48.5861 92.8481C48.5861 113.699 65.4888 130.601 86.3394 130.601Z" fill="#FDA57D"/>
<path d="M86.2868 58.03C94.6785 58.03 101.481 51.2273 101.481 42.8356C101.481 34.444 94.6785 27.6412 86.2868 27.6412C77.8952 27.6412 71.0924 34.444 71.0924 42.8356C71.0924 51.2273 77.8952 58.03 86.2868 58.03Z" fill="#F55F44"/>
<path d="M86.2868 37.8509C91.7969 37.8509 96.2637 33.3841 96.2637 27.8739C96.2637 22.3638 91.7969 17.897 86.2868 17.897C80.7767 17.897 76.3098 22.3638 76.3098 27.8739C76.3098 33.3841 80.7767 37.8509 86.2868 37.8509Z" fill="#F55F44"/>
<path d="M79.6956 51.1685C76.1308 49.5695 73.3189 46.6587 71.844 43.0407C70.3692 39.4227 70.3447 35.3757 71.7756 31.7401C71.6705 31.9503 71.5654 32.168 71.4678 32.3857C69.8182 36.0631 69.6971 40.2452 71.131 44.0119C72.5649 47.7786 75.4364 50.8214 79.1138 52.471C82.7912 54.1206 86.9733 54.2417 90.74 52.8078C94.5067 51.3739 97.5495 48.5024 99.1991 44.825C99.2967 44.6073 99.3868 44.3896 99.4769 44.1644C97.7131 47.6517 94.6734 50.3253 90.9895 51.6297C87.3057 52.9341 83.2609 52.7689 79.6956 51.1685V51.1685Z" fill="#F55F44"/>
<path opacity="0.1" d="M59.4563 58.5105C59.4563 58.5105 75.3639 90.7911 120.264 72.0233L109.814 55.6353L91.294 48.9839L59.4563 58.5105V58.5105Z" fill="black"/>
<path d="M59.4563 58.03C59.4563 58.03 75.3639 90.3106 120.264 71.5428L109.814 55.1548L91.294 48.5035L59.4563 58.03Z" fill="#F55F44"/>
<path d="M71.7156 46.2739C81.5048 45.504 91.3393 45.504 101.128 46.2739C101.128 46.2739 79.4029 48.2933 71.7156 46.2739Z" fill="#333333"/>
<path d="M88.569 17.2889C87.8142 17.2612 87.0587 17.3191 86.3169 17.4616H86.8949C89.352 17.5402 91.6935 18.5238 93.4695 20.2237C95.2455 21.9235 96.3308 24.2195 96.517 26.6708C96.7032 29.1221 95.9771 31.5558 94.4783 33.5044C92.9794 35.4529 90.8134 36.779 88.3964 37.2278C91.0404 37.2517 93.5857 36.2243 95.4722 34.3715C97.3588 32.5188 98.432 29.9925 98.4559 27.3484C98.4798 24.7044 97.4524 22.1591 95.5996 20.2726C93.7469 18.3861 91.2206 17.3128 88.5765 17.2889H88.569V17.2889Z" fill="#F55F44"/>
<path d="M48.5786 99.3943C50.519 99.3943 52.092 96.4466 52.092 92.8105C52.092 89.1744 50.519 86.2268 48.5786 86.2268C46.6383 86.2268 45.0653 89.1744 45.0653 92.8105C45.0653 96.4466 46.6383 99.3943 48.5786 99.3943Z" fill="#FDA57D"/>
<path d="M124.093 99.3943C126.033 99.3943 127.606 96.4466 127.606 92.8105C127.606 89.1744 126.033 86.2268 124.093 86.2268C122.152 86.2268 120.579 89.1744 120.579 92.8105C120.579 96.4466 122.152 99.3943 124.093 99.3943Z" fill="#FDA57D"/>
<path d="M57.0767 58.9835L64.4411 55.1849L66.1002 61.2731L61.5884 64.3435L57.0767 58.9835Z" fill="#F55F44"/>
<defs>
<linearGradient id="paint0_linear" x1="67003.9" y1="85296.5" x2="67003.9" y2="44968.6" gradientUnits="userSpaceOnUse">
<stop stop-color="#808080" stop-opacity="0.25"/>
<stop offset="0.54" stop-color="#808080" stop-opacity="0.12"/>
<stop offset="1" stop-color="#808080" stop-opacity="0.1"/>
</linearGradient>
</defs>
</svg>
