<svg width="175" height="176" viewBox="0 0 175 176" fill="none" xmlns="http://www.w3.org/2000/svg">
<g opacity="0.5">
<path opacity="0.5" d="M87.5 175.894C135.825 175.894 175 136.718 175 88.3936C175 40.0686 135.825 0.893555 87.5 0.893555C39.1751 0.893555 0 40.0686 0 88.3936C0 136.718 39.1751 175.894 87.5 175.894Z" fill="url(#paint0_linear)"/>
</g>
<path d="M87.6662 173.485C134.969 173.485 173.316 135.138 173.316 87.8347C173.316 40.5315 134.969 2.18457 87.6662 2.18457C40.3629 2.18457 2.01599 40.5315 2.01599 87.8347C2.01599 135.138 40.3629 173.485 87.6662 173.485Z" fill="#F5F5F5"/>
<path d="M87.7417 173.825C104.476 173.851 120.849 168.951 134.818 159.736C131.662 142.491 119.649 141.502 119.649 141.502H53.3955C53.3955 141.502 42.0701 142.431 38.5215 158.301C52.9304 168.437 70.1252 173.86 87.7417 173.825V173.825Z" fill="#5DBBC1"/>
<path d="M86.8356 127.376C109.67 127.376 128.181 108.865 128.181 86.0303C128.181 63.1959 109.67 44.6851 86.8356 44.6851C64.0012 44.6851 45.4904 63.1959 45.4904 86.0303C45.4904 108.865 64.0012 127.376 86.8356 127.376Z" fill="#333333"/>
<path opacity="0.1" d="M73.4943 120.467H99.9881V141.661C99.9881 143.4 99.6456 145.122 98.9801 146.729C98.3145 148.335 97.339 149.795 96.1093 151.025C94.8796 152.255 93.4197 153.23 91.8129 153.896C90.2062 154.561 88.4841 154.904 86.745 154.904C83.2327 154.904 79.8642 153.509 77.3806 151.025C74.8971 148.541 73.5018 145.173 73.5018 141.661V120.467H73.4943Z" fill="black"/>
<path d="M76.0236 119.485H97.4588C97.791 119.485 98.1199 119.551 98.4267 119.678C98.7336 119.805 99.0124 119.991 99.2473 120.226C99.4822 120.461 99.6685 120.74 99.7956 121.047C99.9227 121.354 99.9881 121.683 99.9881 122.015V140.694C99.9881 142.433 99.6456 144.155 98.9801 145.762C98.3145 147.369 97.339 148.829 96.1093 150.058C94.8796 151.288 93.4197 152.264 91.8129 152.929C90.2062 153.595 88.4841 153.937 86.745 153.937C85.0052 153.938 83.2823 153.596 81.6747 152.931C80.0671 152.266 78.6063 151.291 77.3758 150.061C76.1452 148.831 75.169 147.371 74.503 145.764C73.837 144.157 73.4943 142.434 73.4943 140.694V122.007C73.4943 121.675 73.5597 121.346 73.6868 121.039C73.8139 120.732 74.0002 120.454 74.2351 120.219C74.4699 119.984 74.7488 119.798 75.0557 119.67C75.3625 119.543 75.6914 119.478 76.0236 119.478V119.485Z" fill="#FDB797"/>
<path opacity="0.1" d="M73.5471 130.471C82.0855 133.662 91.4846 133.689 100.041 130.547V127.27H73.5471V130.471V130.471Z" fill="black"/>
<path d="M86.8355 132.245C107.806 132.245 124.806 115.246 124.806 94.2752C124.806 73.3048 107.806 56.3049 86.8355 56.3049C65.8651 56.3049 48.8652 73.3048 48.8652 94.2752C48.8652 115.246 65.8651 132.245 86.8355 132.245Z" fill="#FDB797"/>
<path opacity="0.1" d="M59.7981 59.7326C59.7981 59.7326 75.7971 92.1988 120.955 73.3231L110.445 56.8409L91.8188 50.1514L59.7981 59.7326Z" fill="black"/>
<path d="M59.7981 59.2571C59.7981 59.2571 75.7971 91.7232 120.955 72.8476L110.445 56.3653L91.8188 49.6758L59.7981 59.2571Z" fill="#333333"/>
<path d="M59.6547 57.0523C60.7333 53.7127 62.5976 50.6807 65.0909 48.2109C72.5581 40.8268 84.8046 39.2714 91.0864 30.8453C91.4277 31.4417 91.6402 32.1029 91.7102 32.7865C91.7801 33.47 91.706 34.1606 91.4926 34.8138C91.2791 35.4669 90.9311 36.068 90.471 36.5783C90.0109 37.0886 89.449 37.4968 88.8214 37.7765C94.8616 37.7387 101.815 37.2102 105.213 32.2572C106.054 34.2145 106.322 36.3701 105.987 38.4738C105.651 40.5774 104.726 42.5427 103.318 44.1413C108.648 44.383 114.341 47.9995 114.689 53.33C114.915 56.8786 112.695 60.2385 109.773 62.2771C106.851 64.3157 103.325 65.2443 99.8523 66.0145C89.7198 68.2644 53.0406 77.6343 59.6547 57.0523V57.0523Z" fill="#333333"/>
<path d="M48.8502 100.859C50.8017 100.859 52.3837 97.8944 52.3837 94.2374C52.3837 90.5804 50.8017 87.6158 48.8502 87.6158C46.8987 87.6158 45.3167 90.5804 45.3167 94.2374C45.3167 97.8944 46.8987 100.859 48.8502 100.859Z" fill="#FDB797"/>
<path d="M124.798 103.124C126.75 103.124 128.332 100.16 128.332 96.5026C128.332 92.8456 126.75 89.881 124.798 89.881C122.847 89.881 121.265 92.8456 121.265 96.5026C121.265 100.16 122.847 103.124 124.798 103.124Z" fill="#FDB797"/>
<defs>
<linearGradient id="paint0_linear" x1="20280.7" y1="84459.4" x2="20280.7" y2="43899.6" gradientUnits="userSpaceOnUse">
<stop stop-color="#808080" stop-opacity="0.25"/>
<stop offset="0.54" stop-color="#808080" stop-opacity="0.12"/>
<stop offset="1" stop-color="#808080" stop-opacity="0.1"/>
</linearGradient>
</defs>
</svg>
