<svg width="196" height="186" viewBox="0 0 196 186" fill="none" xmlns="http://www.w3.org/2000/svg">
<path d="M63.593 126.794V139.962H49.593V126.794H63.593ZM63.593 47.7886V60.9561H49.593V47.7886H63.593ZM147.593 47.7886V60.9561H133.593V47.7886H147.593ZM35.593 153.026H77.593V113.626H35.593V153.026ZM35.593 74.1237H77.593V34.621H35.593V74.1237ZM119.593 74.1237H161.593V34.621H119.593V74.1237ZM91.593 100.459V166.297H21.593V100.459H91.593ZM147.593 153.129V166.297H133.593V153.129H147.593ZM175.593 153.129V166.297H161.593V153.129H175.593ZM175.593 100.459V139.962H133.593V126.794H119.593V166.297H105.593V100.459H147.593V113.626H161.593V100.459H175.593ZM91.593 21.4534V87.2913H21.593V21.4534H91.593ZM175.593 21.4534V87.2913H105.593V21.4534H175.593Z" fill="white"/>
</svg>
